D:\school\WTK\thesis\model\3dpredictsim\Results\Batchsim_tmt_linear_v2\Pog_s1_tmt_bCst_d05_k2000_ig24_act_GRF.mot
nRows=15
nColumns=19

name D:\school\WTK\thesis\model\3dpredictsim\Results\Batchsim_tmt_linear_v2\Pog_s1_tmt_bCst_d05_k2000_ig24_act_GRF.mot
datacolumns 19
datarows 15
range 0.5837747745 0.7472317114
endheader
time 	ground_force_vx	ground_force_vy	ground_force_vz	ground_force_px	ground_force_py	ground_force_pz	1_ground_force_vx	1_ground_force_vy	1_ground_force_vz	1_ground_force_px	1_ground_force_py	1_ground_force_pz	ground_torque_x	ground_torque_y	ground_torque_z	1_ground_torque_x	1_ground_torque_y	1_ground_torque_z
        0.5837747745	       47.1808694539	      267.8659028198	        9.4118505039	        0.3859862816	        0.0000000000	        0.0409307410	      -67.8752183788	       52.3433044217	       -8.6813615833	        1.0739885146	        0.0000000000	       -0.0314684711	        0.0000000000	        0.0000000000	        0.0000000000	        0.0000000000	        0.0000000000	        0.0000000000	
        0.5954502700	       30.3941042118	      218.1819593049	       12.7000726308	        0.3988354006	        0.0000000000	        0.0377614261	     -128.3979876549	      112.2847969745	      -17.8595172154	        1.0697740708	        0.0000000000	       -0.0353160957	        0.0000000000	        0.0000000000	        0.0000000000	        0.0000000000	        0.0000000000	        0.0000000000	
        0.6071257655	       34.1233001339	      183.2420679883	       16.8205277155	        0.3993697726	        0.0000000000	        0.0380594375	     -239.1165341318	      315.3232512442	      -28.4491435148	        1.0429246818	        0.0000000000	       -0.0474603944	        0.0000000000	        0.0000000000	        0.0000000000	        0.0000000000	        0.0000000000	        0.0000000000	
        0.6188012610	       32.0451540215	      141.3433591282	       20.9272875858	        0.3998755896	        0.0000000000	        0.0384382487	     -177.9606619185	      535.3275484395	        3.8935231800	        1.0190789065	        0.0000000000	       -0.0562266195	        0.0000000000	        0.0000000000	        0.0000000000	        0.0000000000	        0.0000000000	        0.0000000000	
        0.6304767565	       22.9721368797	       91.2823019274	       18.0450600761	        0.4002820855	        0.0000000000	        0.0385375390	     -186.4524676376	      741.2984999720	       13.8071843946	        1.0094233569	        0.0000000000	       -0.0592466113	        0.0000000000	        0.0000000000	        0.0000000000	        0.0000000000	        0.0000000000	        0.0000000000	
        0.6421522520	        5.8869754451	       34.2149481291	        8.7094798864	        0.3999410860	        0.0000000000	        0.0384797558	     -196.6132931651	      882.6031188302	       21.3193687966	        1.0021304374	        0.0000000000	       -0.0617112325	        0.0000000000	        0.0000000000	        0.0000000000	        0.0000000000	        0.0000000000	        0.0000000000	
        0.6538277475	        0.1993748689	       -0.2064021095	       -0.0229293899	        0.0000000000	        0.0000000000	        0.0000000000	     -190.1188872574	      923.7138686678	       23.3052616932	        0.9977269386	        0.0000000000	       -0.0631805198	        0.0000000000	        0.0000000000	        0.0000000000	        0.0000000000	        0.0000000000	        0.0000000000	
        0.6655032429	        0.0082426860	       -0.0065788733	        0.0001317878	        0.0000000000	        0.0000000000	        0.0000000000	     -169.8999152448	      902.0738225675	       22.1596778211	        0.9942517183	        0.0000000000	       -0.0641240877	        0.0000000000	        0.0000000000	        0.0000000000	        0.0000000000	        0.0000000000	        0.0000000000	
        0.6771787384	        0.1698908890	       -0.1131525298	        0.0065897198	        0.0000000000	        0.0000000000	        0.0000000000	     -146.9529783400	      860.0577444336	       21.1746301976	        0.9917937173	        0.0000000000	       -0.0647089337	        0.0000000000	        0.0000000000	        0.0000000000	        0.0000000000	        0.0000000000	        0.0000000000	
        0.6888542339	       -1.7186343930	        1.0057929521	       -0.0776610567	        0.0000000000	        0.0000000000	        0.0000000000	     -128.0566687709	      809.6127547348	       20.5251395933	        0.9911813733	        0.0000000000	       -0.0650103785	        0.0000000000	        0.0000000000	        0.0000000000	        0.0000000000	        0.0000000000	        0.0000000000	
        0.7005297294	       -2.0081686170	        1.0663841795	       -0.0945258956	        0.0000000000	        0.0000000000	        0.0000000000	     -112.5124712530	      761.2243578237	       20.0643617500	        0.9917680319	        0.0000000000	       -0.0651621090	        0.0000000000	        0.0000000000	        0.0000000000	        0.0000000000	        0.0000000000	        0.0000000000	
        0.7122052249	       -1.7393482340	        0.8577092106	       -0.0809459352	        0.0000000000	        0.0000000000	        0.0000000000	      -98.3257044817	      718.8859724100	       19.4799404865	        0.9929849478	        0.0000000000	       -0.0652502009	        0.0000000000	        0.0000000000	        0.0000000000	        0.0000000000	        0.0000000000	        0.0000000000	
        0.7238807204	       -1.2762235408	        0.5998242632	       -0.0506768223	        0.0000000000	        0.0000000000	        0.0000000000	      -85.0267418245	      687.6257478450	       19.3166306597	        0.9947668699	        0.0000000000	       -0.0652389559	        0.0000000000	        0.0000000000	        0.0000000000	        0.0000000000	        0.0000000000	        0.0000000000	
        0.7355562159	       -0.9615527260	        0.4340353706	       -0.0322771794	        0.0000000000	        0.0000000000	        0.0000000000	      -75.5820857098	      664.4035820461	       19.8587419891	        0.9969175092	        0.0000000000	       -0.0650978163	        0.0000000000	        0.0000000000	        0.0000000000	        0.0000000000	        0.0000000000	        0.0000000000	
        0.7472317114	       -0.7867378570	        0.3439848680	       -0.0220805450	        0.0000000000	        0.0000000000	        0.0000000000	      -68.0535731797	      646.0076699096	       20.7934517108	        0.9992263151	        0.0000000000	       -0.0648651298	        0.0000000000	        0.0000000000	        0.0000000000	        0.0000000000	        0.0000000000	        0.0000000000	
